<svg xmlns="http://www.w3.org/2000/svg" viewBox="0 0 64 64" width="64" height="64">
  <defs>
    <linearGradient id="bgGradient" x1="0%" y1="0%" x2="100%" y2="100%">
      <stop offset="0%" style="stop-color:#3b82f6;stop-opacity:1" />
      <stop offset="100%" style="stop-color:#1d4ed8;stop-opacity:1" />
    </linearGradient>
    <linearGradient id="iconGradient" x1="0%" y1="0%" x2="100%" y2="100%">
      <stop offset="0%" style="stop-color:#ffffff;stop-opacity:1" />
      <stop offset="100%" style="stop-color:#e5e7eb;stop-opacity:1" />
    </linearGradient>
    <filter id="shadow" x="-20%" y="-20%" width="140%" height="140%">
      <feDropShadow dx="0" dy="2" stdDeviation="2" flood-color="#000000" flood-opacity="0.2"/>
    </filter>
  </defs>
  
  <!-- Background Circle -->
  <circle cx="32" cy="32" r="28" fill="url(#bgGradient)" filter="url(#shadow)"/>
  
  <!-- Inner Circle for Depth -->
  <circle cx="32" cy="32" r="24" fill="none" stroke="rgba(255,255,255,0.1)" stroke-width="1"/>
  
  <!-- Main Icon - Stylized 'EI' with Tech Elements -->
  <g fill="url(#iconGradient)">
    <!-- Letter 'E' -->
    <rect x="18" y="20" width="8" height="3" rx="1.5"/>
    <rect x="18" y="20" width="3" height="24" rx="1.5"/>
    <rect x="18" y="30" width="6" height="3" rx="1.5"/>
    <rect x="18" y="41" width="8" height="3" rx="1.5"/>
    
    <!-- Letter 'I' with Tech Accent -->
    <rect x="38" y="20" width="3" height="24" rx="1.5"/>
    <rect x="36" y="20" width="7" height="3" rx="1.5"/>
    <rect x="36" y="41" width="7" height="3" rx="1.5"/>
    
    <!-- Tech Circuit Elements -->
    <circle cx="30" cy="16" r="1.5" opacity="0.8"/>
    <circle cx="34" cy="16" r="1" opacity="0.6"/>
    <rect x="29" y="15" width="6" height="0.5" rx="0.25" opacity="0.7"/>
    
    <!-- Cloud Symbol (Top Right) -->
    <path d="M44 18c0-1.1.9-2 2-2s2 .9 2 2c1.1 0 2 .9 2 2s-.9 2-2 2h-4c-1.1 0-2-.9-2-2s.9-2 2-2z" opacity="0.6"/>
    
    <!-- Security Shield (Bottom Left) -->
    <path d="M14 46l3-8 3 8c0 1.7-1.3 3-3 3s-3-1.3-3-3z" opacity="0.6"/>
    
    <!-- Network Nodes (Bottom Right) -->
    <circle cx="46" cy="46" r="1" opacity="0.7"/>
    <circle cx="50" cy="48" r="0.8" opacity="0.5"/>
    <circle cx="48" cy="50" r="0.6" opacity="0.4"/>
    <line x1="46" y1="46" x2="50" y2="48" stroke="url(#iconGradient)" stroke-width="0.5" opacity="0.5"/>
    <line x1="50" y1="48" x2="48" y2="50" stroke="url(#iconGradient)" stroke-width="0.5" opacity="0.5"/>
  </g>
  
  <!-- Subtle Highlight -->
  <circle cx="32" cy="32" r="28" fill="none" stroke="rgba(255,255,255,0.2)" stroke-width="1"/>
</svg>